<svg xmlns="http://www.w3.org/2000/svg">

	<symbol id="ask" width="20" height="20" fill="none" viewBox="0 0 20 20">
		<path fill="#fff" fill-opacity=".7"
			d="M10 18.333a8.333 8.333 0 1 1 0-16.666 8.333 8.333 0 0 1 0 16.666ZM9.167 12.5v1.667h1.666V12.5H9.167Zm1.666-1.37A2.918 2.918 0 1 0 7.14 7.76l1.635.327A1.25 1.25 0 1 1 10 9.583a.833.833 0 0 0-.833.834v1.25h1.666v-.538Z" />
	</symbol>

	<symbol id="ruble" width="24" height="24" fill="currentColor" viewBox="0 0 24 24">
		<path fill="currentColor"
			d="M13.408 13.734H5v-2.046h8.376c.721 0 1.318-.118 1.79-.352.472-.24.822-.568 1.05-.984.228-.422.342-.907.342-1.454 0-.541-.114-1.026-.342-1.453a2.414 2.414 0 0 0-1.042-1.008c-.467-.25-1.055-.375-1.766-.375H9.94V20H7.49V4h5.918c1.236 0 2.267.219 3.094.656.833.438 1.456 1.026 1.87 1.766.419.74.628 1.562.628 2.469 0 .916-.212 1.742-.636 2.476-.42.73-1.045 1.307-1.878 1.735-.827.421-1.853.632-3.078.632Zm.12 1.344v2.055H5v-2.055h8.527Z" />
	</symbol>

	<symbol id="usd" width="24" height="24" fill="currentColor" viewBox="0 0 24 24">
		<path fill="currentColor"
			d="M11.394 22V2h1.291v20h-1.291Zm4.04-13.797c-.085-.74-.431-1.312-1.04-1.719-.61-.411-1.376-.617-2.3-.617-.66 0-1.233.104-1.716.313-.483.203-.858.484-1.126.843a1.981 1.981 0 0 0-.394 1.211c0 .38.09.709.268.985.184.276.423.508.717.695.299.182.619.336.96.461.341.12.67.219.984.297l1.575.406c.515.125 1.042.294 1.583.508.54.213 1.042.495 1.504.844.462.349.834.78 1.118 1.297.289.515.433 1.132.433 1.851 0 .906-.236 1.711-.709 2.414-.467.703-1.147 1.258-2.039 1.664-.887.407-1.96.61-3.22.61-1.208 0-2.252-.19-3.134-.57-.882-.38-1.573-.92-2.071-1.618-.499-.703-.775-1.536-.827-2.5h2.44c.048.578.237 1.06.568 1.445.336.38.764.665 1.283.852.525.182 1.1.273 1.725.273.687 0 1.299-.106 1.834-.32.541-.219.966-.52 1.276-.906.31-.39.465-.846.465-1.367 0-.474-.137-.862-.41-1.164-.268-.303-.632-.553-1.094-.75a10.75 10.75 0 0 0-1.552-.524l-1.905-.515c-1.291-.35-2.315-.862-3.07-1.54-.752-.677-1.127-1.572-1.127-2.687 0-.922.252-1.727.756-2.414.504-.688 1.186-1.221 2.047-1.602.861-.385 1.832-.578 2.914-.578 1.091 0 2.055.19 2.89.57.84.38 1.5.904 1.984 1.57.483.662.735 1.423.755 2.282h-2.346Z" />
	</symbol>

	<symbol id="logo" width="21" height="14" fill="none" viewBox="0 0 21 14">
		<path fill="#fff"
			d="M19.698.222c-.232-.174-.644-.328-1.691-.127-3.233.62-5.49 3.27-6.545 4.738C10.15 3.318 8.52 1.998 7.335 1.457h-.001a3.9 3.9 0 0 0-.483-.214 1.087 1.087 0 0 0-1.16.29c-.002.002-.003.003-.003.005-1.982 2.25-3.16 4.333-3.877 5.871-.659 1.414-2.495 5.353-1.142 6.37.231.173.643.327 1.69.126 3.234-.62 5.49-3.27 6.545-4.738 1.316 1.52 2.951 2.843 4.138 3.381h.003c.166.086.324.156.471.209a1.082 1.082 0 0 0 1.164-.295c1.981-2.25 3.16-4.333 3.876-5.871.659-1.414 2.495-5.353 1.143-6.37ZM4.552 12.092c-.318.156-1.092.535-1.37.294-.127-.108-.108-.307-.092-.421.262-1.868 2.604-5.189 2.604-5.189.166-.234.475-.673.873-1.243a16.007 16.007 0 0 0 1.869 3.07c-.912 1.09-2.462 2.79-3.884 3.488ZM17.276 2.034c-.263 1.868-2.605 5.189-2.605 5.189-.166.234-.474.673-.872 1.243a16.017 16.017 0 0 0-1.618-2.74c-.082-.11-.166-.22-.252-.33.912-1.09 2.462-2.79 3.884-3.488.319-.157 1.092-.536 1.371-.295.126.108.108.307.091.421Z" />
	</symbol>

	<symbol id="chevron_left" width="24" height="24" fill="none" viewBox="0 0 24 24">
		<path fill="#fff" fill-opacity=".7"
			d="m10.828 12 4.95 4.95-1.414 1.415L8 12l6.364-6.364 1.414 1.414-4.95 4.95Z" />
	</symbol>

	<symbol id="star_white" width="20" height="20" fill="none" viewBox="0 0 20 20">
		<path fill="#fff"
			d="m9.558 15.08-3.75 2.275a.833.833 0 0 1-1.256-.573.816.816 0 0 1 .015-.326l.583-2.275a2.86 2.86 0 0 1 1.542-1.867l4.091-1.95a.383.383 0 0 0 .184-.509.383.383 0 0 0-.417-.208L6 10.431a3.209 3.209 0 0 1-2.6-.7L1.967 8.538a.817.817 0 0 1 .466-1.459l4.392-.341a.833.833 0 0 0 .7-.509l1.7-4.066a.833.833 0 0 1 1.525 0l1.7 4.066a.834.834 0 0 0 .7.5l4.417.35a.825.825 0 0 1 .475 1.442l-3.367 2.858a.817.817 0 0 0-.275.817l1.042 4.275a.823.823 0 0 1-1.242.892l-3.783-2.284a.833.833 0 0 0-.859 0Z" />
	</symbol>

	<symbol id="star_mini" width="14" height="14" fill="none" viewBox="0 0 14 14">
		<path fill="#fff"
			d="M6.69 10.556 4.067 12.15a.584.584 0 0 1-.88-.401.572.572 0 0 1 .01-.23l.409-1.592a2.001 2.001 0 0 1 1.08-1.306l2.863-1.365a.268.268 0 0 0 .129-.356.268.268 0 0 0-.292-.146L4.2 7.301a2.246 2.246 0 0 1-1.82-.49l-1.003-.834a.572.572 0 0 1 .326-1.02l3.074-.24a.583.583 0 0 0 .49-.356l1.19-2.846a.583.583 0 0 1 1.068 0l1.19 2.846a.583.583 0 0 0 .49.35l3.092.245a.577.577 0 0 1 .332 1.01l-2.356 2a.571.571 0 0 0-.193.572l.73 2.992a.577.577 0 0 1-.87.625l-2.648-1.599a.583.583 0 0 0-.601 0Z" />
	</symbol>

	<symbol id="star_empty" width="64" height="64" fill="none" viewBox="0 0 64 64">
		<path fill="#fff" fill-opacity=".5"
			d="m30.587 48.258-12 7.28a2.667 2.667 0 0 1-3.654-.854 2.613 2.613 0 0 1-.32-2.026l1.867-7.28c.667-2.614 2.48-4.8 4.933-5.974l13.094-6.24a1.227 1.227 0 0 0 .586-1.627 1.226 1.226 0 0 0-1.333-.666L19.2 33.377a10.267 10.267 0 0 1-8.32-2.24l-4.587-3.813a2.613 2.613 0 0 1 1.494-4.667l14.053-1.093a2.666 2.666 0 0 0 2.24-1.627l5.44-13.013a2.667 2.667 0 0 1 4.88 0l5.44 13.014a2.667 2.667 0 0 0 2.24 1.6l14.133 1.12a2.639 2.639 0 0 1 1.52 4.613L46.96 36.417a2.613 2.613 0 0 0-.88 2.614l3.333 13.68a2.641 2.641 0 0 1-1.973 3.2 2.667 2.667 0 0 1-2-.347l-12.107-7.306a2.666 2.666 0 0 0-2.746 0Z" />
	</symbol>

	<symbol id="gift" width="20" height="20" fill="none" viewBox="0 0 20 20">
		<path fill="#fff" fill-opacity=".7"
			d="M16.67 10.836v5.833c0 .46-.372.833-.833.833H4.171a.833.833 0 0 1-.834-.833v-5.833h13.334Zm-4.583-9.167a2.917 2.917 0 0 1 2.636 4.168l2.781-.001c.46 0 .833.373.833.833v2.5c0 .46-.373.833-.833.833h-15a.833.833 0 0 1-.833-.833v-2.5c0-.46.373-.833.833-.833h2.781a2.917 2.917 0 0 1 4.72-3.291 2.9 2.9 0 0 1 2.082-.876ZM7.921 3.336A1.25 1.25 0 0 0 7.8 5.83l.12.006h1.25v-1.25A1.25 1.25 0 0 0 8.04 3.34l-.12-.005Zm4.166 0-.12.005a1.25 1.25 0 0 0-1.124 1.124l-.006.12v1.25h1.25l.12-.005a1.25 1.25 0 0 0 0-2.489l-.12-.005Z" />
	</symbol>

	<symbol id="username" width="20" height="20" fill="none" viewBox="0 0 20 20">
		<path fill="#fff" fill-opacity=".5"
			d="M15.333 10a5.333 5.333 0 1 0-2.374 4.438l.74 1.11A6.667 6.667 0 1 1 16.666 10v1a2.333 2.333 0 0 1-4.265 1.31A3.333 3.333 0 1 1 12 7.334h1.333V11a1 1 0 1 0 2 0v-1ZM10 8a2 2 0 1 0 0 4 2 2 0 0 0 0-4Z" />
	</symbol>

	<symbol id="star_gray" width="33" height="32" fill="currentColor" viewBox="0 0 33 32">
		<path fill="currentColor"
			d="m15.793 24.129-6 3.64a1.333 1.333 0 0 1-1.826-.427 1.307 1.307 0 0 1-.16-1.013l.933-3.64a4.574 4.574 0 0 1 2.467-2.987l6.546-3.12a.614.614 0 0 0 .294-.813.613.613 0 0 0-.667-.334L10.1 16.69a5.133 5.133 0 0 1-4.16-1.12l-2.293-1.907a1.307 1.307 0 0 1 .746-2.333l7.027-.547a1.334 1.334 0 0 0 1.12-.813l2.72-6.507a1.333 1.333 0 0 1 2.44 0l2.72 6.507a1.333 1.333 0 0 0 1.12.8l7.067.56a1.32 1.32 0 0 1 .76 2.306L23.98 18.21a1.307 1.307 0 0 0-.44 1.306l1.667 6.84a1.32 1.32 0 0 1-1.987 1.427l-6.053-3.653a1.333 1.333 0 0 0-1.374 0Z" />
	</symbol>

	<symbol id="star_yellow" width="33" height="32" fill="none" viewBox="0 0 33 32">
		<path fill="#FFCA55"
			d="m15.793 24.129-6 3.64a1.333 1.333 0 0 1-1.826-.427 1.307 1.307 0 0 1-.16-1.013l.933-3.64a4.574 4.574 0 0 1 2.467-2.987l6.546-3.12a.614.614 0 0 0 .294-.813.613.613 0 0 0-.667-.334L10.1 16.69a5.133 5.133 0 0 1-4.16-1.12l-2.293-1.907a1.307 1.307 0 0 1 .746-2.333l7.027-.547a1.334 1.334 0 0 0 1.12-.813l2.72-6.507a1.333 1.333 0 0 1 2.44 0l2.72 6.507a1.333 1.333 0 0 0 1.12.8l7.067.56a1.32 1.32 0 0 1 .76 2.306L23.98 18.21a1.307 1.307 0 0 0-.44 1.306l1.667 6.84a1.32 1.32 0 0 1-1.987 1.427l-6.053-3.653a1.333 1.333 0 0 0-1.374 0Z" />
	</symbol>

	<symbol id="card" width="44" height="44" fill="none" viewBox="0 0 44 44">
		<path fill="#437DFC" d="M2 22C2 10.954 10.954 2 22 2s20 8.954 20 20-8.954 20-20 20S2 33.046 2 22Z" />
		<path fill="#fff"
			d="M30.337 20.333v8.334c0 .46-.373.833-.833.833h-15a.833.833 0 0 1-.833-.834v-8.333h16.666Zm0-1.666H13.671v-3.334c0-.46.373-.833.833-.833h15c.46 0 .833.373.833.833v3.333Zm-5.833 6.666V27h3.333v-1.667h-3.333Z" />
	</symbol>

	<symbol id="ton" width="44" height="44" fill="none" viewBox="0 0 44 44">
		<path fill="#0098EA" d="M22 42c11.046 0 20-8.954 20-20S33.046 2 22 2 2 10.954 2 22s8.954 20 20 20Z" />
		<path fill="#fff"
			d="M15.17 13.163c-2.51 0-4.103 2.709-2.84 4.898l8.43 14.611c.55.954 1.929.954 2.479 0l8.431-14.61c1.262-2.187-.33-4.9-2.84-4.9H15.17Zm5.583 15.128-1.835-3.553-4.43-7.923a.774.774 0 0 1 .68-1.157h5.584v12.634l.001-.001Zm8.755-11.477-4.428 7.925-1.836 3.552V15.657h5.583c.612 0 .973.65.68 1.157Z" />
	</symbol>

	<symbol id="sbp" width="44" height="44" fill="none" viewBox="0 0 44 44">
		<path fill="#1A1637" d="M2 22C2 10.954 10.954 2 22 2s20 8.954 20 20-8.954 20-20 20S2 33.046 2 22Z" />
		<path fill="#5B57A2" d="m11 14.66 3.286 5.627v3.433l-3.282 5.617L11 14.659Z" />
		<path fill="#D90751" d="m23.618 18.24 3.08-1.809L33 16.425l-9.382 5.507v-3.693Z" />
		<path fill="#FAB718" d="m23.6 14.626.018 7.451-3.294-1.939V9l3.277 5.626Z" />
		<path fill="#ED6F26" d="m33 16.425-6.302.006-3.097-1.805L20.324 9 33 16.425Z" />
		<path fill="#63B22F" d="M23.618 29.368v-3.615l-3.294-1.902L20.326 35l3.292-5.632Z" />
		<path fill="#1487C9" d="m26.69 27.576-12.404-7.289L11 14.66l21.987 12.91-6.297.007Z" />
		<path fill="#017F36" d="m20.326 35 3.292-5.632 3.072-1.792 6.297-.007L20.327 35Z" />
		<path fill="#984995" d="m11.004 29.337 9.347-5.486-3.142-1.847-2.923 1.716-3.282 5.617Z" />
	</symbol>

	<symbol id="star_success" width="390" height="323" fill="none" viewBox="0 0 390 323">
		<g filter="url(#a)">
			<path fill="#fff"
				d="m193.968 181.37-17.25 10.465a3.83 3.83 0 0 1-5.251-1.227 3.742 3.742 0 0 1-.46-2.913l2.683-10.465c.958-3.757 3.565-6.9 7.092-8.587l18.821-8.97a1.762 1.762 0 0 0 .844-2.338 1.766 1.766 0 0 0-1.917-.958l-20.93 3.603a14.756 14.756 0 0 1-11.96-3.22l-6.593-5.482a3.749 3.749 0 0 1-1.259-4.1 3.752 3.752 0 0 1 3.405-2.608l20.202-1.572a3.83 3.83 0 0 0 3.22-2.338l7.82-18.707a3.832 3.832 0 0 1 5.601-1.664 3.832 3.832 0 0 1 1.414 1.664l7.82 18.707a3.836 3.836 0 0 0 3.22 2.3l20.317 1.61a3.793 3.793 0 0 1 2.185 6.632l-15.487 13.148a3.752 3.752 0 0 0-1.265 3.757l4.792 19.665a3.806 3.806 0 0 1-.456 2.893 3.804 3.804 0 0 1-2.381 1.707c-.986.219-2.02.04-2.875-.499l-17.403-10.503a3.835 3.835 0 0 0-3.949 0Z" />
			<path fill="url(#b)"
				d="m193.968 181.37-17.25 10.465a3.83 3.83 0 0 1-5.251-1.227 3.742 3.742 0 0 1-.46-2.913l2.683-10.465c.958-3.757 3.565-6.9 7.092-8.587l18.821-8.97a1.762 1.762 0 0 0 .844-2.338 1.766 1.766 0 0 0-1.917-.958l-20.93 3.603a14.756 14.756 0 0 1-11.96-3.22l-6.593-5.482a3.749 3.749 0 0 1-1.259-4.1 3.752 3.752 0 0 1 3.405-2.608l20.202-1.572a3.83 3.83 0 0 0 3.22-2.338l7.82-18.707a3.832 3.832 0 0 1 5.601-1.664 3.832 3.832 0 0 1 1.414 1.664l7.82 18.707a3.836 3.836 0 0 0 3.22 2.3l20.317 1.61a3.793 3.793 0 0 1 2.185 6.632l-15.487 13.148a3.752 3.752 0 0 0-1.265 3.757l4.792 19.665a3.806 3.806 0 0 1-.456 2.893 3.804 3.804 0 0 1-2.381 1.707c-.986.219-2.02.04-2.875-.499l-17.403-10.503a3.835 3.835 0 0 0-3.949 0Z" />
		</g>
		<g filter="url(#c)" opacity=".7">
			<path fill="#fff"
				d="m246.782 135.15-8.696 3.036a1.752 1.752 0 0 1-2.229-1.046 1.712 1.712 0 0 1 .071-1.345l2.192-4.418a5.999 5.999 0 0 1 3.981-3.161l9.257-2.219a.805.805 0 0 0 .598-.965.807.807 0 0 0-.765-.609l-9.688-.378a6.74 6.74 0 0 1-5.035-2.573l-2.424-3.074a1.71 1.71 0 0 1 .579-2.648 1.71 1.71 0 0 1 1.016-.144l9.17 1.216a1.751 1.751 0 0 0 1.66-.738l5.268-7.612c.198-.275.473-.486.789-.609a1.757 1.757 0 0 1 1.87.398c.239.24.404.545.473.877l1.717 9.096a1.75 1.75 0 0 0 1.219 1.333l8.92 2.647a1.726 1.726 0 0 1 1.22 1.47 1.727 1.727 0 0 1-.874 1.699l-8.163 4.401a1.715 1.715 0 0 0-.922 1.557l.273 9.237a1.739 1.739 0 0 1-1.037 1.639c-.21.092-.437.142-.666.145a1.748 1.748 0 0 1-1.237-.495l-6.774-6.342a1.744 1.744 0 0 0-1.763-.375Z" />
			<path fill="url(#d)"
				d="m246.782 135.15-8.696 3.036a1.752 1.752 0 0 1-2.229-1.046 1.712 1.712 0 0 1 .071-1.345l2.192-4.418a5.999 5.999 0 0 1 3.981-3.161l9.257-2.219a.805.805 0 0 0 .598-.965.807.807 0 0 0-.765-.609l-9.688-.378a6.74 6.74 0 0 1-5.035-2.573l-2.424-3.074a1.71 1.71 0 0 1 .579-2.648 1.71 1.71 0 0 1 1.016-.144l9.17 1.216a1.751 1.751 0 0 0 1.66-.738l5.268-7.612c.198-.275.473-.486.789-.609a1.757 1.757 0 0 1 1.87.398c.239.24.404.545.473.877l1.717 9.096a1.75 1.75 0 0 0 1.219 1.333l8.92 2.647a1.726 1.726 0 0 1 1.22 1.47 1.727 1.727 0 0 1-.874 1.699l-8.163 4.401a1.715 1.715 0 0 0-.922 1.557l.273 9.237a1.739 1.739 0 0 1-1.037 1.639c-.21.092-.437.142-.666.145a1.748 1.748 0 0 1-1.237-.495l-6.774-6.342a1.744 1.744 0 0 0-1.763-.375Z" />
		</g>
		<g filter="url(#e)" opacity=".6">
			<path fill="#fff"
				d="m136.116 130.607-6.623 5.058a1.585 1.585 0 0 1-2.211-.272 1.542 1.542 0 0 1-.317-1.176l.64-4.416a5.432 5.432 0 0 1 2.534-3.839l7.334-4.514a.729.729 0 0 0 .243-.998.73.73 0 0 0-.829-.309l-8.437 2.403a6.075 6.075 0 0 1-2.614.158 6.081 6.081 0 0 1-2.439-.953l-2.95-1.961a1.55 1.55 0 0 1 .586-2.849l8.227-1.536a1.59 1.59 0 0 0 1.219-1.103l2.387-8.027a1.58 1.58 0 0 1 1.34-1.094 1.584 1.584 0 0 1 1.541.785l4.037 7.337a1.579 1.579 0 0 0 1.423.803l8.415-.235a1.573 1.573 0 0 1 1.463.921 1.57 1.57 0 0 1-.273 1.707l-5.781 6.082a1.56 1.56 0 0 0-.354 1.599l2.835 7.865a1.562 1.562 0 0 1-.43 1.702 1.578 1.578 0 0 1-.532.312 1.59 1.59 0 0 1-1.203-.078l-7.61-3.546a1.579 1.579 0 0 0-1.621.174Z" />
			<path fill="url(#f)"
				d="m136.116 130.607-6.623 5.058a1.585 1.585 0 0 1-2.211-.272 1.542 1.542 0 0 1-.317-1.176l.64-4.416a5.432 5.432 0 0 1 2.534-3.839l7.334-4.514a.729.729 0 0 0 .243-.998.73.73 0 0 0-.829-.309l-8.437 2.403a6.075 6.075 0 0 1-2.614.158 6.081 6.081 0 0 1-2.439-.953l-2.95-1.961a1.55 1.55 0 0 1 .586-2.849l8.227-1.536a1.59 1.59 0 0 0 1.219-1.103l2.387-8.027a1.58 1.58 0 0 1 1.34-1.094 1.584 1.584 0 0 1 1.541.785l4.037 7.337a1.579 1.579 0 0 0 1.423.803l8.415-.235a1.573 1.573 0 0 1 1.463.921 1.57 1.57 0 0 1-.273 1.707l-5.781 6.082a1.56 1.56 0 0 0-.354 1.599l2.835 7.865a1.562 1.562 0 0 1-.43 1.702 1.578 1.578 0 0 1-.532.312 1.59 1.59 0 0 1-1.203-.078l-7.61-3.546a1.579 1.579 0 0 0-1.621.174Z" />
		</g>
		<g filter="url(#g)" opacity=".1">
			<path fill="#fff"
				d="m253.587 192.762-6.621 2.326a1.333 1.333 0 0 1-1.779-1.312c.009-.176.054-.348.131-.507l1.664-3.369a4.574 4.574 0 0 1 3.029-2.415l7.049-1.704a.612.612 0 0 0 .454-.735.617.617 0 0 0-.583-.464l-7.382-.273a5.128 5.128 0 0 1-3.84-1.953l-1.852-2.339a1.307 1.307 0 0 1 1.212-2.129l6.988.913a1.336 1.336 0 0 0 1.264-.566l4.002-5.806a1.331 1.331 0 0 1 2.388.503l1.321 6.927a1.325 1.325 0 0 0 .931 1.014l6.8 2.004c.247.074.468.22.633.419a1.314 1.314 0 0 1-.365 1.994l-6.213 3.366a1.308 1.308 0 0 0-.7 1.188l.221 7.036a1.321 1.321 0 0 1-.787 1.251 1.308 1.308 0 0 1-1.451-.264l-5.17-4.822a1.335 1.335 0 0 0-1.344-.283Z" />
			<path fill="url(#h)"
				d="m253.587 192.762-6.621 2.326a1.333 1.333 0 0 1-1.779-1.312c.009-.176.054-.348.131-.507l1.664-3.369a4.574 4.574 0 0 1 3.029-2.415l7.049-1.704a.612.612 0 0 0 .454-.735.617.617 0 0 0-.583-.464l-7.382-.273a5.128 5.128 0 0 1-3.84-1.953l-1.852-2.339a1.307 1.307 0 0 1 1.212-2.129l6.988.913a1.336 1.336 0 0 0 1.264-.566l4.002-5.806a1.331 1.331 0 0 1 2.388.503l1.321 6.927a1.325 1.325 0 0 0 .931 1.014l6.8 2.004c.247.074.468.22.633.419a1.314 1.314 0 0 1-.365 1.994l-6.213 3.366a1.308 1.308 0 0 0-.7 1.188l.221 7.036a1.321 1.321 0 0 1-.787 1.251 1.308 1.308 0 0 1-1.451-.264l-5.17-4.822a1.335 1.335 0 0 0-1.344-.283Z" />
		</g>
		<g filter="url(#i)" opacity=".4">
			<path fill="#fff"
				d="m137.596 191.376-4.402 5.465a1.336 1.336 0 0 1-1.863.221 1.298 1.298 0 0 1-.495-.898l-.362-3.74a4.57 4.57 0 0 1 1.302-3.648l5.093-5.163a.616.616 0 0 0-.001-.865.616.616 0 0 0-.741-.086l-6.418 3.657a5.134 5.134 0 0 1-4.293.364l-2.805-1.012a1.31 1.31 0 0 1-.898-1.192 1.304 1.304 0 0 1 .805-1.256l6.421-2.907a1.328 1.328 0 0 0 .776-1.146l.342-7.044a1.335 1.335 0 0 1 1.634-1.208c.252.059.481.19.66.377l4.773 5.192a1.334 1.334 0 0 0 1.326.37l6.835-1.88a1.317 1.317 0 0 1 1.381.46 1.323 1.323 0 0 1 .119 1.45l-3.508 6.135a1.304 1.304 0 0 0 .032 1.378l3.896 5.864a1.31 1.31 0 0 1 .193 1 1.31 1.31 0 0 1-.576.84 1.331 1.331 0 0 1-.999.178l-6.936-1.374a1.33 1.33 0 0 0-1.291.468Z" />
			<path fill="url(#j)"
				d="m137.596 191.376-4.402 5.465a1.336 1.336 0 0 1-1.863.221 1.298 1.298 0 0 1-.495-.898l-.362-3.74a4.57 4.57 0 0 1 1.302-3.648l5.093-5.163a.616.616 0 0 0-.001-.865.616.616 0 0 0-.741-.086l-6.418 3.657a5.134 5.134 0 0 1-4.293.364l-2.805-1.012a1.31 1.31 0 0 1-.898-1.192 1.304 1.304 0 0 1 .805-1.256l6.421-2.907a1.328 1.328 0 0 0 .776-1.146l.342-7.044a1.335 1.335 0 0 1 1.634-1.208c.252.059.481.19.66.377l4.773 5.192a1.334 1.334 0 0 0 1.326.37l6.835-1.88a1.317 1.317 0 0 1 1.381.46 1.323 1.323 0 0 1 .119 1.45l-3.508 6.135a1.304 1.304 0 0 0 .032 1.378l3.896 5.864a1.31 1.31 0 0 1 .193 1 1.31 1.31 0 0 1-.576.84 1.331 1.331 0 0 1-.999.178l-6.936-1.374a1.33 1.33 0 0 0-1.291.468Z" />
		</g>
		<defs>
			<radialGradient id="b" cx="0" cy="0" r="1" gradientTransform="matrix(0 36.3983 -38.3361 0 195.974 156.076)"
				gradientUnits="userSpaceOnUse">
				<stop stop-color="#FFD77E" />
				<stop offset="1" stop-color="#FFB000" />
			</radialGradient>
			<radialGradient id="d" cx="0" cy="0" r="1"
				gradientTransform="matrix(-3.45479 16.25349 -17.11885 -3.63872 250.066 124.038)"
				gradientUnits="userSpaceOnUse">
				<stop stop-color="#FFD77E" />
				<stop offset="1" stop-color="#FFB000" />
			</radialGradient>
			<radialGradient id="f" cx="0" cy="0" r="1"
				gradientTransform="rotate(83.872 1.05 135.65) scale(15.0341 15.8345)" gradientUnits="userSpaceOnUse">
				<stop stop-color="#FFD77E" />
				<stop offset="1" stop-color="#FFB000" />
			</radialGradient>
			<radialGradient id="h" cx="0" cy="0" r="1"
				gradientTransform="rotate(101.89 53.272 196.031) scale(12.6603 13.3343)" gradientUnits="userSpaceOnUse">
				<stop stop-color="#FFD77E" />
				<stop offset="1" stop-color="#FFB000" />
			</radialGradient>
			<radialGradient id="j" cx="0" cy="0" r="1"
				gradientTransform="matrix(4.31118 11.90365 -12.53737 4.5407 135.245 182.866)"
				gradientUnits="userSpaceOnUse">
				<stop stop-color="#FFD77E" />
				<stop offset="1" stop-color="#FFB000" />
			</radialGradient>
			<filter id="a" width="317.472" height="313.597" x="37.209" y="3.267" color-interpolation-filters="sRGB"
				filterUnits="userSpaceOnUse">
				<feFlood flood-opacity="0" result="BackgroundImageFix" />
				<feColorMatrix in="SourceAlpha" result="hardAlpha" values="0 0 0 0 0 0 0 0 0 0 0 0 0 0 0 0 0 0 127 0" />
				<feOffset dy="4" />
				<feGaussianBlur stdDeviation="60.2" />
				<feComposite in2="hardAlpha" operator="out" />
				<feColorMatrix values="0 0 0 0 0.956863 0 0 0 0 0.682353 0 0 0 0 0.0666667 0 0 0 1 0" />
				<feBlend in2="BackgroundImageFix" result="effect1_dropShadow_19007_20233" />
				<feColorMatrix in="SourceAlpha" result="hardAlpha" values="0 0 0 0 0 0 0 0 0 0 0 0 0 0 0 0 0 0 127 0" />
				<feOffset />
				<feGaussianBlur stdDeviation="12.7" />
				<feComposite in2="hardAlpha" operator="out" />
				<feColorMatrix values="0 0 0 0 0.913725 0 0 0 0 0.65098 0 0 0 0 0.0666667 0 0 0 0.5 0" />
				<feBlend in2="effect1_dropShadow_19007_20233" result="effect2_dropShadow_19007_20233" />
				<feBlend in="SourceGraphic" in2="effect2_dropShadow_19007_20233" result="shape" />
				<feColorMatrix in="SourceAlpha" result="hardAlpha" values="0 0 0 0 0 0 0 0 0 0 0 0 0 0 0 0 0 0 127 0" />
				<feOffset dy="2" />
				<feGaussianBlur stdDeviation="2" />
				<feComposite in2="hardAlpha" k2="-1" k3="1" operator="arithmetic" />
				<feColorMatrix values="0 0 0 0 1 0 0 0 0 1 0 0 0 0 1 0 0 0 0.47 0" />
				<feBlend in2="shape" result="effect3_innerShadow_19007_20233" />
			</filter>
			<filter id="c" width="290.614" height="290.614" x="104.6" y="-16.4" color-interpolation-filters="sRGB"
				filterUnits="userSpaceOnUse">
				<feFlood flood-opacity="0" result="BackgroundImageFix" />
				<feColorMatrix in="SourceAlpha" result="hardAlpha" values="0 0 0 0 0 0 0 0 0 0 0 0 0 0 0 0 0 0 127 0" />
				<feOffset dy="4" />
				<feGaussianBlur stdDeviation="60.2" />
				<feComposite in2="hardAlpha" operator="out" />
				<feColorMatrix values="0 0 0 0 0.956863 0 0 0 0 0.682353 0 0 0 0 0.0666667 0 0 0 1 0" />
				<feBlend in2="BackgroundImageFix" result="effect1_dropShadow_19007_20233" />
				<feColorMatrix in="SourceAlpha" result="hardAlpha" values="0 0 0 0 0 0 0 0 0 0 0 0 0 0 0 0 0 0 127 0" />
				<feOffset />
				<feGaussianBlur stdDeviation="12.7" />
				<feComposite in2="hardAlpha" operator="out" />
				<feColorMatrix values="0 0 0 0 0.913725 0 0 0 0 0.65098 0 0 0 0 0.0666667 0 0 0 0.5 0" />
				<feBlend in2="effect1_dropShadow_19007_20233" result="effect2_dropShadow_19007_20233" />
				<feBlend in="SourceGraphic" in2="effect2_dropShadow_19007_20233" result="shape" />
				<feColorMatrix in="SourceAlpha" result="hardAlpha" values="0 0 0 0 0 0 0 0 0 0 0 0 0 0 0 0 0 0 127 0" />
				<feOffset dy="2" />
				<feGaussianBlur stdDeviation="2" />
				<feComposite in2="hardAlpha" k2="-1" k3="1" operator="arithmetic" />
				<feColorMatrix values="0 0 0 0 1 0 0 0 0 1 0 0 0 0 1 0 0 0 0.47 0" />
				<feBlend in2="shape" result="effect3_innerShadow_19007_20233" />
				<feGaussianBlur result="effect4_foregroundBlur_19007_20233" stdDeviation="1" />
			</filter>
			<filter id="e" width="282.639" height="282.639" x="-5.4" y="-16.4" color-interpolation-filters="sRGB"
				filterUnits="userSpaceOnUse">
				<feFlood flood-opacity="0" result="BackgroundImageFix" />
				<feColorMatrix in="SourceAlpha" result="hardAlpha" values="0 0 0 0 0 0 0 0 0 0 0 0 0 0 0 0 0 0 127 0" />
				<feOffset dy="4" />
				<feGaussianBlur stdDeviation="60.2" />
				<feComposite in2="hardAlpha" operator="out" />
				<feColorMatrix values="0 0 0 0 0.956863 0 0 0 0 0.682353 0 0 0 0 0.0666667 0 0 0 1 0" />
				<feBlend in2="BackgroundImageFix" result="effect1_dropShadow_19007_20233" />
				<feColorMatrix in="SourceAlpha" result="hardAlpha" values="0 0 0 0 0 0 0 0 0 0 0 0 0 0 0 0 0 0 127 0" />
				<feOffset />
				<feGaussianBlur stdDeviation="12.7" />
				<feComposite in2="hardAlpha" operator="out" />
				<feColorMatrix values="0 0 0 0 0.913725 0 0 0 0 0.65098 0 0 0 0 0.0666667 0 0 0 0.5 0" />
				<feBlend in2="effect1_dropShadow_19007_20233" result="effect2_dropShadow_19007_20233" />
				<feBlend in="SourceGraphic" in2="effect2_dropShadow_19007_20233" result="shape" />
				<feColorMatrix in="SourceAlpha" result="hardAlpha" values="0 0 0 0 0 0 0 0 0 0 0 0 0 0 0 0 0 0 127 0" />
				<feOffset dy="2" />
				<feGaussianBlur stdDeviation="2" />
				<feComposite in2="hardAlpha" k2="-1" k3="1" operator="arithmetic" />
				<feColorMatrix values="0 0 0 0 1 0 0 0 0 1 0 0 0 0 1 0 0 0 0.47 0" />
				<feBlend in2="shape" result="effect3_innerShadow_19007_20233" />
				<feGaussianBlur result="effect4_foregroundBlur_19007_20233" stdDeviation="1" />
			</filter>
			<filter id="g" width="278.706" height="278.707" x="116.6" y="49.6" color-interpolation-filters="sRGB"
				filterUnits="userSpaceOnUse">
				<feFlood flood-opacity="0" result="BackgroundImageFix" />
				<feColorMatrix in="SourceAlpha" result="hardAlpha" values="0 0 0 0 0 0 0 0 0 0 0 0 0 0 0 0 0 0 127 0" />
				<feOffset dy="4" />
				<feGaussianBlur stdDeviation="60.2" />
				<feComposite in2="hardAlpha" operator="out" />
				<feColorMatrix values="0 0 0 0 0.956863 0 0 0 0 0.682353 0 0 0 0 0.0666667 0 0 0 1 0" />
				<feBlend in2="BackgroundImageFix" result="effect1_dropShadow_19007_20233" />
				<feColorMatrix in="SourceAlpha" result="hardAlpha" values="0 0 0 0 0 0 0 0 0 0 0 0 0 0 0 0 0 0 127 0" />
				<feOffset />
				<feGaussianBlur stdDeviation="12.7" />
				<feComposite in2="hardAlpha" operator="out" />
				<feColorMatrix values="0 0 0 0 0.913725 0 0 0 0 0.65098 0 0 0 0 0.0666667 0 0 0 0.5 0" />
				<feBlend in2="effect1_dropShadow_19007_20233" result="effect2_dropShadow_19007_20233" />
				<feBlend in="SourceGraphic" in2="effect2_dropShadow_19007_20233" result="shape" />
				<feColorMatrix in="SourceAlpha" result="hardAlpha" values="0 0 0 0 0 0 0 0 0 0 0 0 0 0 0 0 0 0 127 0" />
				<feOffset dy="2" />
				<feGaussianBlur stdDeviation="2" />
				<feComposite in2="hardAlpha" k2="-1" k3="1" operator="arithmetic" />
				<feColorMatrix values="0 0 0 0 1 0 0 0 0 1 0 0 0 0 1 0 0 0 0.47 0" />
				<feBlend in2="shape" result="effect3_innerShadow_19007_20233" />
				<feGaussianBlur result="effect4_foregroundBlur_19007_20233" stdDeviation="2" />
			</filter>
			<filter id="i" width="281.784" height="281.784" x="-5.4" y="46.6" color-interpolation-filters="sRGB"
				filterUnits="userSpaceOnUse">
				<feFlood flood-opacity="0" result="BackgroundImageFix" />
				<feColorMatrix in="SourceAlpha" result="hardAlpha" values="0 0 0 0 0 0 0 0 0 0 0 0 0 0 0 0 0 0 127 0" />
				<feOffset dy="4" />
				<feGaussianBlur stdDeviation="60.2" />
				<feComposite in2="hardAlpha" operator="out" />
				<feColorMatrix values="0 0 0 0 0.956863 0 0 0 0 0.682353 0 0 0 0 0.0666667 0 0 0 1 0" />
				<feBlend in2="BackgroundImageFix" result="effect1_dropShadow_19007_20233" />
				<feColorMatrix in="SourceAlpha" result="hardAlpha" values="0 0 0 0 0 0 0 0 0 0 0 0 0 0 0 0 0 0 127 0" />
				<feOffset />
				<feGaussianBlur stdDeviation="12.7" />
				<feComposite in2="hardAlpha" operator="out" />
				<feColorMatrix values="0 0 0 0 0.913725 0 0 0 0 0.65098 0 0 0 0 0.0666667 0 0 0 0.5 0" />
				<feBlend in2="effect1_dropShadow_19007_20233" result="effect2_dropShadow_19007_20233" />
				<feBlend in="SourceGraphic" in2="effect2_dropShadow_19007_20233" result="shape" />
				<feColorMatrix in="SourceAlpha" result="hardAlpha" values="0 0 0 0 0 0 0 0 0 0 0 0 0 0 0 0 0 0 127 0" />
				<feOffset dy="2" />
				<feGaussianBlur stdDeviation="2" />
				<feComposite in2="hardAlpha" k2="-1" k3="1" operator="arithmetic" />
				<feColorMatrix values="0 0 0 0 1 0 0 0 0 1 0 0 0 0 1 0 0 0 0.47 0" />
				<feBlend in2="shape" result="effect3_innerShadow_19007_20233" />
				<feGaussianBlur result="effect4_foregroundBlur_19007_20233" stdDeviation="1" />
			</filter>
		</defs>
	</symbol>

</svg>