<svg xmlns="http://www.w3.org/2000/svg" width="276" height="267" fill="none" viewBox="0 0 276 267">
  <g filter="url(#a)">
    <path fill="#fff" d="m133.782 135.15-8.696 3.036a1.752 1.752 0 0 1-2.229-1.046 1.712 1.712 0 0 1 .071-1.345l2.192-4.418a5.999 5.999 0 0 1 3.981-3.161l9.257-2.219a.805.805 0 0 0 .598-.965.807.807 0 0 0-.765-.609l-9.688-.378a6.74 6.74 0 0 1-5.035-2.573l-2.424-3.074a1.71 1.71 0 0 1 .579-2.648 1.71 1.71 0 0 1 1.016-.144l9.17 1.216a1.751 1.751 0 0 0 1.66-.738l5.268-7.612c.198-.275.473-.486.789-.609a1.757 1.757 0 0 1 1.87.398c.239.24.404.545.473.877l1.717 9.096a1.75 1.75 0 0 0 1.219 1.333l8.92 2.647a1.726 1.726 0 0 1 1.22 1.47 1.727 1.727 0 0 1-.874 1.699l-8.163 4.401a1.715 1.715 0 0 0-.922 1.557l.273 9.237a1.739 1.739 0 0 1-1.037 1.639c-.21.092-.437.142-.666.145a1.748 1.748 0 0 1-1.237-.495l-6.774-6.342a1.744 1.744 0 0 0-1.763-.375Z"/>
    <path fill="url(#b)" d="m133.782 135.15-8.696 3.036a1.752 1.752 0 0 1-2.229-1.046 1.712 1.712 0 0 1 .071-1.345l2.192-4.418a5.999 5.999 0 0 1 3.981-3.161l9.257-2.219a.805.805 0 0 0 .598-.965.807.807 0 0 0-.765-.609l-9.688-.378a6.74 6.74 0 0 1-5.035-2.573l-2.424-3.074a1.71 1.71 0 0 1 .579-2.648 1.71 1.71 0 0 1 1.016-.144l9.17 1.216a1.751 1.751 0 0 0 1.66-.738l5.268-7.612c.198-.275.473-.486.789-.609a1.757 1.757 0 0 1 1.87.398c.239.24.404.545.473.877l1.717 9.096a1.75 1.75 0 0 0 1.219 1.333l8.92 2.647a1.726 1.726 0 0 1 1.22 1.47 1.727 1.727 0 0 1-.874 1.699l-8.163 4.401a1.715 1.715 0 0 0-.922 1.557l.273 9.237a1.739 1.739 0 0 1-1.037 1.639c-.21.092-.437.142-.666.145a1.748 1.748 0 0 1-1.237-.495l-6.774-6.342a1.744 1.744 0 0 0-1.763-.375Z"/>
  </g>
  <defs>
    <radialGradient id="b" cx="0" cy="0" r="1" gradientTransform="matrix(-3.45479 16.25349 -17.11885 -3.63872 137.066 124.038)" gradientUnits="userSpaceOnUse">
      <stop stop-color="#FFD77E"/>
      <stop offset="1" stop-color="#FFB000"/>
    </radialGradient>
    <filter id="a" width="290.614" height="290.614" x="-8.4" y="-16.4" color-interpolation-filters="sRGB" filterUnits="userSpaceOnUse">
      <feFlood flood-opacity="0" result="BackgroundImageFix"/>
      <feColorMatrix in="SourceAlpha" result="hardAlpha" values="0 0 0 0 0 0 0 0 0 0 0 0 0 0 0 0 0 0 127 0"/>
      <feOffset dy="4"/>
      <feGaussianBlur stdDeviation="60.2"/>
      <feComposite in2="hardAlpha" operator="out"/>
      <feColorMatrix values="0 0 0 0 0.956863 0 0 0 0 0.682353 0 0 0 0 0.0666667 0 0 0 1 0"/>
      <feBlend in2="BackgroundImageFix" result="effect1_dropShadow_21003_9137"/>
      <feColorMatrix in="SourceAlpha" result="hardAlpha" values="0 0 0 0 0 0 0 0 0 0 0 0 0 0 0 0 0 0 127 0"/>
      <feOffset/>
      <feGaussianBlur stdDeviation="12.7"/>
      <feComposite in2="hardAlpha" operator="out"/>
      <feColorMatrix values="0 0 0 0 0.913725 0 0 0 0 0.65098 0 0 0 0 0.0666667 0 0 0 0.5 0"/>
      <feBlend in2="effect1_dropShadow_21003_9137" result="effect2_dropShadow_21003_9137"/>
      <feBlend in="SourceGraphic" in2="effect2_dropShadow_21003_9137" result="shape"/>
      <feColorMatrix in="SourceAlpha" result="hardAlpha" values="0 0 0 0 0 0 0 0 0 0 0 0 0 0 0 0 0 0 127 0"/>
      <feOffset dy="2"/>
      <feGaussianBlur stdDeviation="2"/>
      <feComposite in2="hardAlpha" k2="-1" k3="1" operator="arithmetic"/>
      <feColorMatrix values="0 0 0 0 1 0 0 0 0 1 0 0 0 0 1 0 0 0 0.47 0"/>
      <feBlend in2="shape" result="effect3_innerShadow_21003_9137"/>
    </filter>
  </defs>
</svg>
