<svg width="390" height="323" viewBox="0 0 390 323" fill="none" xmlns="http://www.w3.org/2000/svg">
<g filter="url(#filter0_ddi_19007_20233)">
<path d="M193.968 181.37L176.718 191.835C175.858 192.364 174.824 192.531 173.84 192.301C172.857 192.072 172.004 191.463 171.467 190.608C171.197 190.179 171.018 189.699 170.939 189.199C170.86 188.698 170.883 188.187 171.007 187.695L173.69 177.23C174.648 173.473 177.255 170.33 180.782 168.643L199.603 159.673C200.024 159.474 200.349 159.116 200.507 158.678C200.665 158.24 200.643 157.757 200.447 157.335C200.277 156.987 199.997 156.705 199.651 156.531C199.304 156.358 198.91 156.304 198.53 156.377L177.6 159.98C175.492 160.342 173.331 160.241 171.266 159.685C169.201 159.129 167.281 158.131 165.64 156.76L159.047 151.278C158.443 150.805 157.999 150.159 157.774 149.426C157.549 148.693 157.554 147.908 157.788 147.178C158.021 146.448 158.473 145.806 159.082 145.34C159.691 144.874 160.427 144.605 161.193 144.57L181.395 142.998C182.094 142.941 182.764 142.692 183.332 142.28C183.9 141.867 184.344 141.307 184.615 140.66L192.435 121.953C192.735 121.273 193.226 120.695 193.849 120.289C194.472 119.883 195.199 119.667 195.943 119.667C196.686 119.667 197.413 119.883 198.036 120.289C198.659 120.695 199.15 121.273 199.45 121.953L207.27 140.66C207.547 141.3 207.993 141.852 208.56 142.258C209.128 142.663 209.795 142.906 210.49 142.96L230.807 144.57C231.548 144.633 232.255 144.912 232.838 145.374C233.422 145.835 233.858 146.457 234.091 147.164C234.323 147.871 234.343 148.63 234.148 149.348C233.953 150.066 233.551 150.711 232.992 151.202L217.505 164.35C216.965 164.796 216.56 165.384 216.337 166.048C216.113 166.712 216.08 167.425 216.24 168.107L221.032 187.772C221.151 188.26 221.172 188.767 221.094 189.264C221.016 189.761 220.839 190.237 220.576 190.665C220.312 191.093 219.965 191.464 219.557 191.757C219.148 192.05 218.685 192.259 218.195 192.372C217.209 192.591 216.175 192.412 215.32 191.873L197.917 181.37C197.321 181.012 196.638 180.823 195.943 180.823C195.247 180.823 194.565 181.012 193.968 181.37Z" fill="white"/>
<path d="M193.968 181.37L176.718 191.835C175.858 192.364 174.824 192.531 173.84 192.301C172.857 192.072 172.004 191.463 171.467 190.608C171.197 190.179 171.018 189.699 170.939 189.199C170.86 188.698 170.883 188.187 171.007 187.695L173.69 177.23C174.648 173.473 177.255 170.33 180.782 168.643L199.603 159.673C200.024 159.474 200.349 159.116 200.507 158.678C200.665 158.24 200.643 157.757 200.447 157.335C200.277 156.987 199.997 156.705 199.651 156.531C199.304 156.358 198.91 156.304 198.53 156.377L177.6 159.98C175.492 160.342 173.331 160.241 171.266 159.685C169.201 159.129 167.281 158.131 165.64 156.76L159.047 151.278C158.443 150.805 157.999 150.159 157.774 149.426C157.549 148.693 157.554 147.908 157.788 147.178C158.021 146.448 158.473 145.806 159.082 145.34C159.691 144.874 160.427 144.605 161.193 144.57L181.395 142.998C182.094 142.941 182.764 142.692 183.332 142.28C183.9 141.867 184.344 141.307 184.615 140.66L192.435 121.953C192.735 121.273 193.226 120.695 193.849 120.289C194.472 119.883 195.199 119.667 195.943 119.667C196.686 119.667 197.413 119.883 198.036 120.289C198.659 120.695 199.15 121.273 199.45 121.953L207.27 140.66C207.547 141.3 207.993 141.852 208.56 142.258C209.128 142.663 209.795 142.906 210.49 142.96L230.807 144.57C231.548 144.633 232.255 144.912 232.838 145.374C233.422 145.835 233.858 146.457 234.091 147.164C234.323 147.871 234.343 148.63 234.148 149.348C233.953 150.066 233.551 150.711 232.992 151.202L217.505 164.35C216.965 164.796 216.56 165.384 216.337 166.048C216.113 166.712 216.08 167.425 216.24 168.107L221.032 187.772C221.151 188.26 221.172 188.767 221.094 189.264C221.016 189.761 220.839 190.237 220.576 190.665C220.312 191.093 219.965 191.464 219.557 191.757C219.148 192.05 218.685 192.259 218.195 192.372C217.209 192.591 216.175 192.412 215.32 191.873L197.917 181.37C197.321 181.012 196.638 180.823 195.943 180.823C195.247 180.823 194.565 181.012 193.968 181.37Z" fill="url(#paint0_radial_19007_20233)"/>
</g>
<g opacity="0.7" filter="url(#filter1_ddif_19007_20233)">
<path d="M246.782 135.15L238.086 138.186C237.651 138.34 237.174 138.317 236.756 138.121C236.339 137.925 236.016 137.573 235.857 137.14C235.778 136.922 235.743 136.691 235.755 136.46C235.767 136.229 235.826 136.003 235.928 135.795L238.12 131.377C238.904 129.79 240.366 128.634 242.101 128.216L251.358 125.997C251.564 125.947 251.743 125.818 251.856 125.638C251.968 125.457 252.004 125.24 251.956 125.032C251.913 124.861 251.815 124.708 251.677 124.598C251.539 124.488 251.368 124.426 251.191 124.423L241.503 124.045C240.527 124.007 239.572 123.757 238.702 123.312C237.833 122.868 237.071 122.24 236.468 121.472L234.044 118.398C233.819 118.13 233.683 117.799 233.652 117.45C233.621 117.101 233.697 116.752 233.871 116.448C234.045 116.144 234.307 115.9 234.623 115.75C234.939 115.599 235.294 115.549 235.639 115.606L244.809 116.822C245.127 116.863 245.45 116.815 245.743 116.685C246.035 116.555 246.287 116.347 246.469 116.084L251.737 108.472C251.935 108.197 252.21 107.986 252.526 107.863C252.843 107.741 253.188 107.714 253.52 107.784C253.852 107.855 254.156 108.02 254.396 108.261C254.635 108.501 254.8 108.806 254.869 109.138L256.586 118.234C256.649 118.546 256.795 118.835 257.01 119.07C257.225 119.305 257.5 119.476 257.805 119.567L266.725 122.214C267.05 122.312 267.339 122.504 267.556 122.766C267.773 123.027 267.908 123.346 267.945 123.684C267.982 124.022 267.919 124.363 267.763 124.665C267.608 124.967 267.367 125.216 267.071 125.383L258.908 129.784C258.624 129.932 258.388 130.156 258.225 130.431C258.062 130.707 257.979 131.022 257.986 131.341L258.259 140.578C258.266 140.807 258.228 141.036 258.145 141.25C258.063 141.464 257.939 141.66 257.781 141.826C257.622 141.992 257.433 142.125 257.222 142.217C257.012 142.309 256.785 142.359 256.556 142.362C256.095 142.367 255.65 142.189 255.319 141.867L248.545 135.525C248.313 135.308 248.026 135.159 247.715 135.093C247.405 135.027 247.082 135.047 246.782 135.15Z" fill="white"/>
<path d="M246.782 135.15L238.086 138.186C237.651 138.34 237.174 138.317 236.756 138.121C236.339 137.925 236.016 137.573 235.857 137.14C235.778 136.922 235.743 136.691 235.755 136.46C235.767 136.229 235.826 136.003 235.928 135.795L238.12 131.377C238.904 129.79 240.366 128.634 242.101 128.216L251.358 125.997C251.564 125.947 251.743 125.818 251.856 125.638C251.968 125.457 252.004 125.24 251.956 125.032C251.913 124.861 251.815 124.708 251.677 124.598C251.539 124.488 251.368 124.426 251.191 124.423L241.503 124.045C240.527 124.007 239.572 123.757 238.702 123.312C237.833 122.868 237.071 122.24 236.468 121.472L234.044 118.398C233.819 118.13 233.683 117.799 233.652 117.45C233.621 117.101 233.697 116.752 233.871 116.448C234.045 116.144 234.307 115.9 234.623 115.75C234.939 115.599 235.294 115.549 235.639 115.606L244.809 116.822C245.127 116.863 245.45 116.815 245.743 116.685C246.035 116.555 246.287 116.347 246.469 116.084L251.737 108.472C251.935 108.197 252.21 107.986 252.526 107.863C252.843 107.741 253.188 107.714 253.52 107.784C253.852 107.855 254.156 108.02 254.396 108.261C254.635 108.501 254.8 108.806 254.869 109.138L256.586 118.234C256.649 118.546 256.795 118.835 257.01 119.07C257.225 119.305 257.5 119.476 257.805 119.567L266.725 122.214C267.05 122.312 267.339 122.504 267.556 122.766C267.773 123.027 267.908 123.346 267.945 123.684C267.982 124.022 267.919 124.363 267.763 124.665C267.608 124.967 267.367 125.216 267.071 125.383L258.908 129.784C258.624 129.932 258.388 130.156 258.225 130.431C258.062 130.707 257.979 131.022 257.986 131.341L258.259 140.578C258.266 140.807 258.228 141.036 258.145 141.25C258.063 141.464 257.939 141.66 257.781 141.826C257.622 141.992 257.433 142.125 257.222 142.217C257.012 142.309 256.785 142.359 256.556 142.362C256.095 142.367 255.65 142.189 255.319 141.867L248.545 135.525C248.313 135.308 248.026 135.159 247.715 135.093C247.405 135.027 247.082 135.047 246.782 135.15Z" fill="url(#paint1_radial_19007_20233)"/>
</g>
<g opacity="0.6" filter="url(#filter2_ddif_19007_20233)">
<path d="M136.116 130.607L129.493 135.665C129.163 135.92 128.745 136.035 128.331 135.984C127.917 135.933 127.54 135.72 127.282 135.393C127.152 135.228 127.057 135.039 127.003 134.837C126.948 134.635 126.935 134.424 126.965 134.217L127.605 129.801C127.833 128.216 128.765 126.81 130.139 125.962L137.473 121.448C137.637 121.347 137.755 121.186 137.801 120.999C137.846 120.812 137.816 120.615 137.716 120.45C137.631 120.315 137.504 120.211 137.354 120.155C137.204 120.1 137.04 120.095 136.887 120.141L128.45 122.544C127.601 122.786 126.709 122.84 125.836 122.702C124.963 122.565 124.131 122.24 123.397 121.749L120.447 119.788C120.179 119.621 119.968 119.375 119.843 119.084C119.718 118.792 119.685 118.47 119.749 118.16C119.813 117.85 119.97 117.566 120.2 117.348C120.429 117.13 120.72 116.987 121.033 116.939L129.26 115.403C129.545 115.348 129.809 115.216 130.024 115.022C130.239 114.828 130.397 114.578 130.479 114.3L132.866 106.273C132.959 105.98 133.136 105.721 133.374 105.527C133.611 105.333 133.901 105.212 134.206 105.179C134.511 105.146 134.819 105.203 135.093 105.342C135.367 105.482 135.594 105.698 135.747 105.964L139.784 113.301C139.925 113.552 140.133 113.759 140.384 113.901C140.635 114.042 140.919 114.112 141.207 114.104L149.622 113.869C149.929 113.863 150.232 113.946 150.492 114.11C150.752 114.274 150.958 114.51 151.085 114.79C151.212 115.07 151.253 115.381 151.205 115.684C151.156 115.988 151.02 116.27 150.812 116.497L145.031 122.579C144.829 122.786 144.689 123.046 144.626 123.328C144.564 123.611 144.582 123.905 144.677 124.178L147.512 132.043C147.583 132.238 147.614 132.445 147.604 132.653C147.593 132.86 147.542 133.064 147.453 133.251C147.363 133.438 147.237 133.606 147.082 133.745C146.927 133.883 146.746 133.989 146.55 134.057C146.155 134.19 145.722 134.162 145.347 133.979L137.737 130.433C137.476 130.312 137.188 130.264 136.902 130.295C136.617 130.326 136.345 130.433 136.116 130.607Z" fill="white"/>
<path d="M136.116 130.607L129.493 135.665C129.163 135.92 128.745 136.035 128.331 135.984C127.917 135.933 127.54 135.72 127.282 135.393C127.152 135.228 127.057 135.039 127.003 134.837C126.948 134.635 126.935 134.424 126.965 134.217L127.605 129.801C127.833 128.216 128.765 126.81 130.139 125.962L137.473 121.448C137.637 121.347 137.755 121.186 137.801 120.999C137.846 120.812 137.816 120.615 137.716 120.45C137.631 120.315 137.504 120.211 137.354 120.155C137.204 120.1 137.04 120.095 136.887 120.141L128.45 122.544C127.601 122.786 126.709 122.84 125.836 122.702C124.963 122.565 124.131 122.24 123.397 121.749L120.447 119.788C120.179 119.621 119.968 119.375 119.843 119.084C119.718 118.792 119.685 118.47 119.749 118.16C119.813 117.85 119.97 117.566 120.2 117.348C120.429 117.13 120.72 116.987 121.033 116.939L129.26 115.403C129.545 115.348 129.809 115.216 130.024 115.022C130.239 114.828 130.397 114.578 130.479 114.3L132.866 106.273C132.959 105.98 133.136 105.721 133.374 105.527C133.611 105.333 133.901 105.212 134.206 105.179C134.511 105.146 134.819 105.203 135.093 105.342C135.367 105.482 135.594 105.698 135.747 105.964L139.784 113.301C139.925 113.552 140.133 113.759 140.384 113.901C140.635 114.042 140.919 114.112 141.207 114.104L149.622 113.869C149.929 113.863 150.232 113.946 150.492 114.11C150.752 114.274 150.958 114.51 151.085 114.79C151.212 115.07 151.253 115.381 151.205 115.684C151.156 115.988 151.02 116.27 150.812 116.497L145.031 122.579C144.829 122.786 144.689 123.046 144.626 123.328C144.564 123.611 144.582 123.905 144.677 124.178L147.512 132.043C147.583 132.238 147.614 132.445 147.604 132.653C147.593 132.86 147.542 133.064 147.453 133.251C147.363 133.438 147.237 133.606 147.082 133.745C146.927 133.883 146.746 133.989 146.55 134.057C146.155 134.19 145.722 134.162 145.347 133.979L137.737 130.433C137.476 130.312 137.188 130.264 136.902 130.295C136.617 130.326 136.345 130.433 136.116 130.607Z" fill="url(#paint2_radial_19007_20233)"/>
</g>
<g opacity="0.1" filter="url(#filter3_ddif_19007_20233)">
<path d="M253.587 192.762L246.966 195.088C246.635 195.206 246.271 195.189 245.953 195.04C245.634 194.892 245.388 194.623 245.266 194.294C245.205 194.128 245.178 193.952 245.187 193.776C245.196 193.6 245.241 193.428 245.318 193.269L246.982 189.9C247.577 188.69 248.689 187.807 250.011 187.485L257.06 185.781C257.217 185.743 257.353 185.645 257.439 185.507C257.524 185.369 257.551 185.203 257.514 185.046C257.481 184.915 257.406 184.799 257.301 184.715C257.195 184.631 257.065 184.585 256.931 184.582L249.549 184.309C248.805 184.281 248.077 184.092 247.414 183.754C246.751 183.417 246.169 182.94 245.709 182.356L243.857 180.017C243.686 179.813 243.581 179.561 243.557 179.295C243.533 179.03 243.591 178.763 243.723 178.531C243.854 178.3 244.054 178.114 244.295 177.999C244.535 177.884 244.805 177.845 245.069 177.888L252.057 178.801C252.299 178.831 252.545 178.795 252.768 178.695C252.991 178.595 253.182 178.436 253.321 178.235L257.323 172.429C257.474 172.219 257.682 172.057 257.924 171.964C258.165 171.87 258.428 171.849 258.681 171.902C258.934 171.955 259.166 172.081 259.349 172.264C259.532 172.446 259.657 172.679 259.711 172.932L261.032 179.859C261.08 180.097 261.192 180.317 261.356 180.495C261.52 180.674 261.73 180.804 261.963 180.873L268.763 182.877C269.01 182.951 269.231 183.097 269.396 183.296C269.562 183.494 269.666 183.738 269.694 183.995C269.723 184.252 269.675 184.512 269.557 184.742C269.439 184.973 269.256 185.163 269.031 185.29L262.818 188.656C262.602 188.769 262.422 188.94 262.298 189.15C262.175 189.36 262.112 189.6 262.118 189.844L262.339 196.88C262.345 197.055 262.316 197.229 262.254 197.393C262.191 197.556 262.097 197.706 261.977 197.832C261.856 197.959 261.712 198.061 261.552 198.131C261.392 198.202 261.219 198.24 261.044 198.243C260.693 198.247 260.354 198.112 260.101 197.867L254.931 193.045C254.753 192.88 254.535 192.767 254.298 192.717C254.061 192.667 253.815 192.683 253.587 192.762Z" fill="white"/>
<path d="M253.587 192.762L246.966 195.088C246.635 195.206 246.271 195.189 245.953 195.04C245.634 194.892 245.388 194.623 245.266 194.294C245.205 194.128 245.178 193.952 245.187 193.776C245.196 193.6 245.241 193.428 245.318 193.269L246.982 189.9C247.577 188.69 248.689 187.807 250.011 187.485L257.06 185.781C257.217 185.743 257.353 185.645 257.439 185.507C257.524 185.369 257.551 185.203 257.514 185.046C257.481 184.915 257.406 184.799 257.301 184.715C257.195 184.631 257.065 184.585 256.931 184.582L249.549 184.309C248.805 184.281 248.077 184.092 247.414 183.754C246.751 183.417 246.169 182.94 245.709 182.356L243.857 180.017C243.686 179.813 243.581 179.561 243.557 179.295C243.533 179.03 243.591 178.763 243.723 178.531C243.854 178.3 244.054 178.114 244.295 177.999C244.535 177.884 244.805 177.845 245.069 177.888L252.057 178.801C252.299 178.831 252.545 178.795 252.768 178.695C252.991 178.595 253.182 178.436 253.321 178.235L257.323 172.429C257.474 172.219 257.682 172.057 257.924 171.964C258.165 171.87 258.428 171.849 258.681 171.902C258.934 171.955 259.166 172.081 259.349 172.264C259.532 172.446 259.657 172.679 259.711 172.932L261.032 179.859C261.08 180.097 261.192 180.317 261.356 180.495C261.52 180.674 261.73 180.804 261.963 180.873L268.763 182.877C269.01 182.951 269.231 183.097 269.396 183.296C269.562 183.494 269.666 183.738 269.694 183.995C269.723 184.252 269.675 184.512 269.557 184.742C269.439 184.973 269.256 185.163 269.031 185.29L262.818 188.656C262.602 188.769 262.422 188.94 262.298 189.15C262.175 189.36 262.112 189.6 262.118 189.844L262.339 196.88C262.345 197.055 262.316 197.229 262.254 197.393C262.191 197.556 262.097 197.706 261.977 197.832C261.856 197.959 261.712 198.061 261.552 198.131C261.392 198.202 261.219 198.24 261.044 198.243C260.693 198.247 260.354 198.112 260.101 197.867L254.931 193.045C254.753 192.88 254.535 192.767 254.298 192.717C254.061 192.667 253.815 192.683 253.587 192.762Z" fill="url(#paint3_radial_19007_20233)"/>
</g>
<g opacity="0.4" filter="url(#filter4_ddif_19007_20233)">
<path d="M137.596 191.376L133.194 196.841C132.975 197.116 132.657 197.293 132.308 197.335C131.959 197.376 131.608 197.278 131.331 197.062C131.192 196.954 131.077 196.818 130.992 196.664C130.906 196.509 130.853 196.339 130.836 196.164L130.474 192.424C130.342 191.082 130.822 189.745 131.776 188.776L136.869 183.613C136.983 183.498 137.047 183.342 137.047 183.18C137.046 183.018 136.982 182.863 136.868 182.748C136.771 182.654 136.646 182.595 136.512 182.579C136.378 182.564 136.243 182.593 136.127 182.662L129.709 186.319C129.063 186.687 128.344 186.91 127.603 186.973C126.862 187.036 126.116 186.937 125.416 186.683L122.611 185.671C122.358 185.588 122.136 185.429 121.975 185.216C121.815 185.003 121.724 184.745 121.713 184.479C121.703 184.212 121.775 183.949 121.919 183.725C122.063 183.5 122.272 183.325 122.518 183.223L128.939 180.316C129.161 180.214 129.351 180.054 129.487 179.852C129.624 179.649 129.703 179.414 129.715 179.17L130.057 172.126C130.074 171.868 130.167 171.621 130.322 171.414C130.478 171.207 130.69 171.051 130.933 170.963C131.176 170.874 131.44 170.859 131.691 170.918C131.943 170.977 132.172 171.108 132.351 171.295L137.124 176.487C137.29 176.663 137.502 176.791 137.735 176.856C137.969 176.921 138.216 176.922 138.45 176.857L145.285 174.977C145.535 174.91 145.799 174.918 146.044 175C146.29 175.081 146.506 175.233 146.666 175.437C146.826 175.64 146.922 175.886 146.943 176.144C146.964 176.402 146.909 176.661 146.785 176.887L143.277 183.022C143.154 183.232 143.091 183.472 143.096 183.715C143.102 183.959 143.175 184.196 143.309 184.4L147.205 190.264C147.302 190.409 147.369 190.573 147.402 190.745C147.435 190.916 147.434 191.093 147.398 191.264C147.363 191.435 147.293 191.598 147.194 191.742C147.096 191.886 146.969 192.009 146.822 192.104C146.525 192.293 146.166 192.357 145.823 192.282L138.887 190.908C138.65 190.862 138.404 190.88 138.177 190.963C137.949 191.045 137.748 191.188 137.596 191.376Z" fill="white"/>
<path d="M137.596 191.376L133.194 196.841C132.975 197.116 132.657 197.293 132.308 197.335C131.959 197.376 131.608 197.278 131.331 197.062C131.192 196.954 131.077 196.818 130.992 196.664C130.906 196.509 130.853 196.339 130.836 196.164L130.474 192.424C130.342 191.082 130.822 189.745 131.776 188.776L136.869 183.613C136.983 183.498 137.047 183.342 137.047 183.18C137.046 183.018 136.982 182.863 136.868 182.748C136.771 182.654 136.646 182.595 136.512 182.579C136.378 182.564 136.243 182.593 136.127 182.662L129.709 186.319C129.063 186.687 128.344 186.91 127.603 186.973C126.862 187.036 126.116 186.937 125.416 186.683L122.611 185.671C122.358 185.588 122.136 185.429 121.975 185.216C121.815 185.003 121.724 184.745 121.713 184.479C121.703 184.212 121.775 183.949 121.919 183.725C122.063 183.5 122.272 183.325 122.518 183.223L128.939 180.316C129.161 180.214 129.351 180.054 129.487 179.852C129.624 179.649 129.703 179.414 129.715 179.17L130.057 172.126C130.074 171.868 130.167 171.621 130.322 171.414C130.478 171.207 130.69 171.051 130.933 170.963C131.176 170.874 131.44 170.859 131.691 170.918C131.943 170.977 132.172 171.108 132.351 171.295L137.124 176.487C137.29 176.663 137.502 176.791 137.735 176.856C137.969 176.921 138.216 176.922 138.45 176.857L145.285 174.977C145.535 174.91 145.799 174.918 146.044 175C146.29 175.081 146.506 175.233 146.666 175.437C146.826 175.64 146.922 175.886 146.943 176.144C146.964 176.402 146.909 176.661 146.785 176.887L143.277 183.022C143.154 183.232 143.091 183.472 143.096 183.715C143.102 183.959 143.175 184.196 143.309 184.4L147.205 190.264C147.302 190.409 147.369 190.573 147.402 190.745C147.435 190.916 147.434 191.093 147.398 191.264C147.363 191.435 147.293 191.598 147.194 191.742C147.096 191.886 146.969 192.009 146.822 192.104C146.525 192.293 146.166 192.357 145.823 192.282L138.887 190.908C138.65 190.862 138.404 190.88 138.177 190.963C137.949 191.045 137.748 191.188 137.596 191.376Z" fill="url(#paint4_radial_19007_20233)"/>
</g>
<defs>
<filter id="filter0_ddi_19007_20233" x="37.2089" y="3.26665" width="317.472" height="313.597" filterUnits="userSpaceOnUse" color-interpolation-filters="sRGB">
<feFlood flood-opacity="0" result="BackgroundImageFix"/>
<feColorMatrix in="SourceAlpha" type="matrix" values="0 0 0 0 0 0 0 0 0 0 0 0 0 0 0 0 0 0 127 0" result="hardAlpha"/>
<feOffset dy="4"/>
<feGaussianBlur stdDeviation="60.2"/>
<feComposite in2="hardAlpha" operator="out"/>
<feColorMatrix type="matrix" values="0 0 0 0 0.956863 0 0 0 0 0.682353 0 0 0 0 0.0666667 0 0 0 1 0"/>
<feBlend mode="normal" in2="BackgroundImageFix" result="effect1_dropShadow_19007_20233"/>
<feColorMatrix in="SourceAlpha" type="matrix" values="0 0 0 0 0 0 0 0 0 0 0 0 0 0 0 0 0 0 127 0" result="hardAlpha"/>
<feOffset/>
<feGaussianBlur stdDeviation="12.7"/>
<feComposite in2="hardAlpha" operator="out"/>
<feColorMatrix type="matrix" values="0 0 0 0 0.913725 0 0 0 0 0.65098 0 0 0 0 0.0666667 0 0 0 0.5 0"/>
<feBlend mode="normal" in2="effect1_dropShadow_19007_20233" result="effect2_dropShadow_19007_20233"/>
<feBlend mode="normal" in="SourceGraphic" in2="effect2_dropShadow_19007_20233" result="shape"/>
<feColorMatrix in="SourceAlpha" type="matrix" values="0 0 0 0 0 0 0 0 0 0 0 0 0 0 0 0 0 0 127 0" result="hardAlpha"/>
<feOffset dy="2"/>
<feGaussianBlur stdDeviation="2"/>
<feComposite in2="hardAlpha" operator="arithmetic" k2="-1" k3="1"/>
<feColorMatrix type="matrix" values="0 0 0 0 1 0 0 0 0 1 0 0 0 0 1 0 0 0 0.47 0"/>
<feBlend mode="normal" in2="shape" result="effect3_innerShadow_19007_20233"/>
</filter>
<filter id="filter1_ddif_19007_20233" x="104.6" y="-16.4" width="290.614" height="290.614" filterUnits="userSpaceOnUse" color-interpolation-filters="sRGB">
<feFlood flood-opacity="0" result="BackgroundImageFix"/>
<feColorMatrix in="SourceAlpha" type="matrix" values="0 0 0 0 0 0 0 0 0 0 0 0 0 0 0 0 0 0 127 0" result="hardAlpha"/>
<feOffset dy="4"/>
<feGaussianBlur stdDeviation="60.2"/>
<feComposite in2="hardAlpha" operator="out"/>
<feColorMatrix type="matrix" values="0 0 0 0 0.956863 0 0 0 0 0.682353 0 0 0 0 0.0666667 0 0 0 1 0"/>
<feBlend mode="normal" in2="BackgroundImageFix" result="effect1_dropShadow_19007_20233"/>
<feColorMatrix in="SourceAlpha" type="matrix" values="0 0 0 0 0 0 0 0 0 0 0 0 0 0 0 0 0 0 127 0" result="hardAlpha"/>
<feOffset/>
<feGaussianBlur stdDeviation="12.7"/>
<feComposite in2="hardAlpha" operator="out"/>
<feColorMatrix type="matrix" values="0 0 0 0 0.913725 0 0 0 0 0.65098 0 0 0 0 0.0666667 0 0 0 0.5 0"/>
<feBlend mode="normal" in2="effect1_dropShadow_19007_20233" result="effect2_dropShadow_19007_20233"/>
<feBlend mode="normal" in="SourceGraphic" in2="effect2_dropShadow_19007_20233" result="shape"/>
<feColorMatrix in="SourceAlpha" type="matrix" values="0 0 0 0 0 0 0 0 0 0 0 0 0 0 0 0 0 0 127 0" result="hardAlpha"/>
<feOffset dy="2"/>
<feGaussianBlur stdDeviation="2"/>
<feComposite in2="hardAlpha" operator="arithmetic" k2="-1" k3="1"/>
<feColorMatrix type="matrix" values="0 0 0 0 1 0 0 0 0 1 0 0 0 0 1 0 0 0 0.47 0"/>
<feBlend mode="normal" in2="shape" result="effect3_innerShadow_19007_20233"/>
<feGaussianBlur stdDeviation="1" result="effect4_foregroundBlur_19007_20233"/>
</filter>
<filter id="filter2_ddif_19007_20233" x="-5.4" y="-16.4" width="282.639" height="282.639" filterUnits="userSpaceOnUse" color-interpolation-filters="sRGB">
<feFlood flood-opacity="0" result="BackgroundImageFix"/>
<feColorMatrix in="SourceAlpha" type="matrix" values="0 0 0 0 0 0 0 0 0 0 0 0 0 0 0 0 0 0 127 0" result="hardAlpha"/>
<feOffset dy="4"/>
<feGaussianBlur stdDeviation="60.2"/>
<feComposite in2="hardAlpha" operator="out"/>
<feColorMatrix type="matrix" values="0 0 0 0 0.956863 0 0 0 0 0.682353 0 0 0 0 0.0666667 0 0 0 1 0"/>
<feBlend mode="normal" in2="BackgroundImageFix" result="effect1_dropShadow_19007_20233"/>
<feColorMatrix in="SourceAlpha" type="matrix" values="0 0 0 0 0 0 0 0 0 0 0 0 0 0 0 0 0 0 127 0" result="hardAlpha"/>
<feOffset/>
<feGaussianBlur stdDeviation="12.7"/>
<feComposite in2="hardAlpha" operator="out"/>
<feColorMatrix type="matrix" values="0 0 0 0 0.913725 0 0 0 0 0.65098 0 0 0 0 0.0666667 0 0 0 0.5 0"/>
<feBlend mode="normal" in2="effect1_dropShadow_19007_20233" result="effect2_dropShadow_19007_20233"/>
<feBlend mode="normal" in="SourceGraphic" in2="effect2_dropShadow_19007_20233" result="shape"/>
<feColorMatrix in="SourceAlpha" type="matrix" values="0 0 0 0 0 0 0 0 0 0 0 0 0 0 0 0 0 0 127 0" result="hardAlpha"/>
<feOffset dy="2"/>
<feGaussianBlur stdDeviation="2"/>
<feComposite in2="hardAlpha" operator="arithmetic" k2="-1" k3="1"/>
<feColorMatrix type="matrix" values="0 0 0 0 1 0 0 0 0 1 0 0 0 0 1 0 0 0 0.47 0"/>
<feBlend mode="normal" in2="shape" result="effect3_innerShadow_19007_20233"/>
<feGaussianBlur stdDeviation="1" result="effect4_foregroundBlur_19007_20233"/>
</filter>
<filter id="filter3_ddif_19007_20233" x="116.6" y="49.6" width="278.706" height="278.707" filterUnits="userSpaceOnUse" color-interpolation-filters="sRGB">
<feFlood flood-opacity="0" result="BackgroundImageFix"/>
<feColorMatrix in="SourceAlpha" type="matrix" values="0 0 0 0 0 0 0 0 0 0 0 0 0 0 0 0 0 0 127 0" result="hardAlpha"/>
<feOffset dy="4"/>
<feGaussianBlur stdDeviation="60.2"/>
<feComposite in2="hardAlpha" operator="out"/>
<feColorMatrix type="matrix" values="0 0 0 0 0.956863 0 0 0 0 0.682353 0 0 0 0 0.0666667 0 0 0 1 0"/>
<feBlend mode="normal" in2="BackgroundImageFix" result="effect1_dropShadow_19007_20233"/>
<feColorMatrix in="SourceAlpha" type="matrix" values="0 0 0 0 0 0 0 0 0 0 0 0 0 0 0 0 0 0 127 0" result="hardAlpha"/>
<feOffset/>
<feGaussianBlur stdDeviation="12.7"/>
<feComposite in2="hardAlpha" operator="out"/>
<feColorMatrix type="matrix" values="0 0 0 0 0.913725 0 0 0 0 0.65098 0 0 0 0 0.0666667 0 0 0 0.5 0"/>
<feBlend mode="normal" in2="effect1_dropShadow_19007_20233" result="effect2_dropShadow_19007_20233"/>
<feBlend mode="normal" in="SourceGraphic" in2="effect2_dropShadow_19007_20233" result="shape"/>
<feColorMatrix in="SourceAlpha" type="matrix" values="0 0 0 0 0 0 0 0 0 0 0 0 0 0 0 0 0 0 127 0" result="hardAlpha"/>
<feOffset dy="2"/>
<feGaussianBlur stdDeviation="2"/>
<feComposite in2="hardAlpha" operator="arithmetic" k2="-1" k3="1"/>
<feColorMatrix type="matrix" values="0 0 0 0 1 0 0 0 0 1 0 0 0 0 1 0 0 0 0.47 0"/>
<feBlend mode="normal" in2="shape" result="effect3_innerShadow_19007_20233"/>
<feGaussianBlur stdDeviation="2" result="effect4_foregroundBlur_19007_20233"/>
</filter>
<filter id="filter4_ddif_19007_20233" x="-5.4" y="46.6" width="281.784" height="281.784" filterUnits="userSpaceOnUse" color-interpolation-filters="sRGB">
<feFlood flood-opacity="0" result="BackgroundImageFix"/>
<feColorMatrix in="SourceAlpha" type="matrix" values="0 0 0 0 0 0 0 0 0 0 0 0 0 0 0 0 0 0 127 0" result="hardAlpha"/>
<feOffset dy="4"/>
<feGaussianBlur stdDeviation="60.2"/>
<feComposite in2="hardAlpha" operator="out"/>
<feColorMatrix type="matrix" values="0 0 0 0 0.956863 0 0 0 0 0.682353 0 0 0 0 0.0666667 0 0 0 1 0"/>
<feBlend mode="normal" in2="BackgroundImageFix" result="effect1_dropShadow_19007_20233"/>
<feColorMatrix in="SourceAlpha" type="matrix" values="0 0 0 0 0 0 0 0 0 0 0 0 0 0 0 0 0 0 127 0" result="hardAlpha"/>
<feOffset/>
<feGaussianBlur stdDeviation="12.7"/>
<feComposite in2="hardAlpha" operator="out"/>
<feColorMatrix type="matrix" values="0 0 0 0 0.913725 0 0 0 0 0.65098 0 0 0 0 0.0666667 0 0 0 0.5 0"/>
<feBlend mode="normal" in2="effect1_dropShadow_19007_20233" result="effect2_dropShadow_19007_20233"/>
<feBlend mode="normal" in="SourceGraphic" in2="effect2_dropShadow_19007_20233" result="shape"/>
<feColorMatrix in="SourceAlpha" type="matrix" values="0 0 0 0 0 0 0 0 0 0 0 0 0 0 0 0 0 0 127 0" result="hardAlpha"/>
<feOffset dy="2"/>
<feGaussianBlur stdDeviation="2"/>
<feComposite in2="hardAlpha" operator="arithmetic" k2="-1" k3="1"/>
<feColorMatrix type="matrix" values="0 0 0 0 1 0 0 0 0 1 0 0 0 0 1 0 0 0 0.47 0"/>
<feBlend mode="normal" in2="shape" result="effect3_innerShadow_19007_20233"/>
<feGaussianBlur stdDeviation="1" result="effect4_foregroundBlur_19007_20233"/>
</filter>
<radialGradient id="paint0_radial_19007_20233" cx="0" cy="0" r="1" gradientUnits="userSpaceOnUse" gradientTransform="translate(195.945 156.065) rotate(90) scale(36.3983 38.3361)">
<stop stop-color="#FFD77E"/>
<stop offset="1" stop-color="#FFB000"/>
</radialGradient>
<radialGradient id="paint1_radial_19007_20233" cx="0" cy="0" r="1" gradientUnits="userSpaceOnUse" gradientTransform="translate(250.066 124.038) rotate(102) scale(16.6166 17.5013)">
<stop stop-color="#FFD77E"/>
<stop offset="1" stop-color="#FFB000"/>
</radialGradient>
<radialGradient id="paint2_radial_19007_20233" cx="0" cy="0" r="1" gradientUnits="userSpaceOnUse" gradientTransform="translate(135.812 120.127) rotate(83.8724) scale(15.0341 15.8345)">
<stop stop-color="#FFD77E"/>
<stop offset="1" stop-color="#FFB000"/>
</radialGradient>
<radialGradient id="paint3_radial_19007_20233" cx="0" cy="0" r="1" gradientUnits="userSpaceOnUse" gradientTransform="translate(256.073 184.291) rotate(101.89) scale(12.6603 13.3343)">
<stop stop-color="#FFD77E"/>
<stop offset="1" stop-color="#FFB000"/>
</radialGradient>
<radialGradient id="paint4_radial_19007_20233" cx="0" cy="0" r="1" gradientUnits="userSpaceOnUse" gradientTransform="translate(135.245 182.866) rotate(70.091) scale(12.6603 13.3343)">
<stop stop-color="#FFD77E"/>
<stop offset="1" stop-color="#FFB000"/>
</radialGradient>
</defs>
</svg>
