<svg xmlns="http://www.w3.org/2000/svg" width="318" height="314" fill="none" viewBox="0 0 318 314">
  <g filter="url(#a)">
    <path fill="#fff" d="m156.968 178.37-17.25 10.465a3.83 3.83 0 0 1-5.251-1.227 3.742 3.742 0 0 1-.46-2.913l2.683-10.465c.958-3.757 3.565-6.9 7.092-8.587l18.821-8.97a1.762 1.762 0 0 0 .844-2.338 1.766 1.766 0 0 0-1.917-.958l-20.93 3.603a14.756 14.756 0 0 1-11.96-3.22l-6.593-5.482a3.749 3.749 0 0 1-1.259-4.1 3.752 3.752 0 0 1 3.405-2.608l20.202-1.572a3.83 3.83 0 0 0 3.22-2.338l7.82-18.707a3.832 3.832 0 0 1 5.601-1.664 3.832 3.832 0 0 1 1.414 1.664l7.82 18.707a3.836 3.836 0 0 0 3.22 2.3l20.317 1.61a3.793 3.793 0 0 1 2.185 6.632l-15.487 13.148a3.752 3.752 0 0 0-1.265 3.757l4.792 19.665a3.806 3.806 0 0 1-.456 2.893 3.804 3.804 0 0 1-2.381 1.707c-.986.219-2.02.04-2.875-.499l-17.403-10.503a3.835 3.835 0 0 0-3.949 0Z"/>
    <path fill="url(#b)" d="m156.968 178.37-17.25 10.465a3.83 3.83 0 0 1-5.251-1.227 3.742 3.742 0 0 1-.46-2.913l2.683-10.465c.958-3.757 3.565-6.9 7.092-8.587l18.821-8.97a1.762 1.762 0 0 0 .844-2.338 1.766 1.766 0 0 0-1.917-.958l-20.93 3.603a14.756 14.756 0 0 1-11.96-3.22l-6.593-5.482a3.749 3.749 0 0 1-1.259-4.1 3.752 3.752 0 0 1 3.405-2.608l20.202-1.572a3.83 3.83 0 0 0 3.22-2.338l7.82-18.707a3.832 3.832 0 0 1 5.601-1.664 3.832 3.832 0 0 1 1.414 1.664l7.82 18.707a3.836 3.836 0 0 0 3.22 2.3l20.317 1.61a3.793 3.793 0 0 1 2.185 6.632l-15.487 13.148a3.752 3.752 0 0 0-1.265 3.757l4.792 19.665a3.806 3.806 0 0 1-.456 2.893 3.804 3.804 0 0 1-2.381 1.707c-.986.219-2.02.04-2.875-.499l-17.403-10.503a3.835 3.835 0 0 0-3.949 0Z"/>
  </g>
  <defs>
    <radialGradient id="b" cx="0" cy="0" r="1" gradientTransform="scale(38.3361 36.3983) rotate(90 -.03 4.176)" gradientUnits="userSpaceOnUse">
      <stop stop-color="#FFD77E"/>
      <stop offset="1" stop-color="#FFB000"/>
    </radialGradient>
    <filter id="a" width="317.472" height="313.597" x=".209" y=".267" color-interpolation-filters="sRGB" filterUnits="userSpaceOnUse">
      <feFlood flood-opacity="0" result="BackgroundImageFix"/>
      <feColorMatrix in="SourceAlpha" result="hardAlpha" values="0 0 0 0 0 0 0 0 0 0 0 0 0 0 0 0 0 0 127 0"/>
      <feOffset dy="4"/>
      <feGaussianBlur stdDeviation="60.2"/>
      <feComposite in2="hardAlpha" operator="out"/>
      <feColorMatrix values="0 0 0 0 0.956863 0 0 0 0 0.682353 0 0 0 0 0.0666667 0 0 0 1 0"/>
      <feBlend in2="BackgroundImageFix" result="effect1_dropShadow_21003_9135"/>
      <feColorMatrix in="SourceAlpha" result="hardAlpha" values="0 0 0 0 0 0 0 0 0 0 0 0 0 0 0 0 0 0 127 0"/>
      <feOffset/>
      <feGaussianBlur stdDeviation="12.7"/>
      <feComposite in2="hardAlpha" operator="out"/>
      <feColorMatrix values="0 0 0 0 0.913725 0 0 0 0 0.65098 0 0 0 0 0.0666667 0 0 0 0.5 0"/>
      <feBlend in2="effect1_dropShadow_21003_9135" result="effect2_dropShadow_21003_9135"/>
      <feBlend in="SourceGraphic" in2="effect2_dropShadow_21003_9135" result="shape"/>
      <feColorMatrix in="SourceAlpha" result="hardAlpha" values="0 0 0 0 0 0 0 0 0 0 0 0 0 0 0 0 0 0 127 0"/>
      <feOffset dy="2"/>
      <feGaussianBlur stdDeviation="2"/>
      <feComposite in2="hardAlpha" k2="-1" k3="1" operator="arithmetic"/>
      <feColorMatrix values="0 0 0 0 1 0 0 0 0 1 0 0 0 0 1 0 0 0 0.47 0"/>
      <feBlend in2="shape" result="effect3_innerShadow_21003_9135"/>
    </filter>
  </defs>
</svg>
