<svg xmlns="http://www.w3.org/2000/svg" width="296" height="281" fill="none" viewBox="0 0 296 281">
  <g filter="url(#a)">
    <path fill="url(#b)" d="m146.587 148.257-12 7.28a2.664 2.664 0 0 1-3.654-.853 2.617 2.617 0 0 1-.32-2.027l1.867-7.28c.667-2.613 2.48-4.8 4.933-5.973l13.094-6.24a1.231 1.231 0 0 0 .586-1.627 1.227 1.227 0 0 0-1.333-.666l-14.56 2.506a10.257 10.257 0 0 1-8.32-2.24l-4.587-3.813a2.619 2.619 0 0 1-.876-2.852 2.615 2.615 0 0 1 2.37-1.815l14.053-1.093a2.667 2.667 0 0 0 2.24-1.627l5.44-13.013a2.669 2.669 0 0 1 3.896-1.158c.434.283.775.685.984 1.158l5.44 13.013a2.666 2.666 0 0 0 2.24 1.6l14.133 1.12a2.641 2.641 0 0 1 1.52 4.614l-10.773 9.146a2.621 2.621 0 0 0-.88 2.614l3.333 13.68a2.65 2.65 0 0 1-.317 2.013 2.646 2.646 0 0 1-1.656 1.187 2.668 2.668 0 0 1-2-.347l-12.107-7.307a2.664 2.664 0 0 0-2.746 0Z"/>
  </g>
  <defs>
    <radialGradient id="b" cx="0" cy="0" r="1" gradientTransform="scale(26.6686 25.3205) rotate(90 .194 5.354)" gradientUnits="userSpaceOnUse">
      <stop stop-color="#FFD77E"/>
      <stop offset="1" stop-color="#FFB000"/>
    </radialGradient>
    <filter id="a" width="294.137" height="291.441" x=".893" y="-11.067" color-interpolation-filters="sRGB" filterUnits="userSpaceOnUse">
      <feFlood flood-opacity="0" result="BackgroundImageFix"/>
      <feColorMatrix in="SourceAlpha" result="hardAlpha" values="0 0 0 0 0 0 0 0 0 0 0 0 0 0 0 0 0 0 127 0"/>
      <feOffset dy="4"/>
      <feGaussianBlur stdDeviation="60.2"/>
      <feComposite in2="hardAlpha" operator="out"/>
      <feColorMatrix values="0 0 0 0 0.956863 0 0 0 0 0.682353 0 0 0 0 0.0666667 0 0 0 1 0"/>
      <feBlend in2="BackgroundImageFix" result="effect1_dropShadow_19003_33806"/>
      <feColorMatrix in="SourceAlpha" result="hardAlpha" values="0 0 0 0 0 0 0 0 0 0 0 0 0 0 0 0 0 0 127 0"/>
      <feOffset/>
      <feGaussianBlur stdDeviation="12.7"/>
      <feComposite in2="hardAlpha" operator="out"/>
      <feColorMatrix values="0 0 0 0 0.913725 0 0 0 0 0.65098 0 0 0 0 0.0666667 0 0 0 0.5 0"/>
      <feBlend in2="effect1_dropShadow_19003_33806" result="effect2_dropShadow_19003_33806"/>
      <feBlend in="SourceGraphic" in2="effect2_dropShadow_19003_33806" result="shape"/>
      <feColorMatrix in="SourceAlpha" result="hardAlpha" values="0 0 0 0 0 0 0 0 0 0 0 0 0 0 0 0 0 0 127 0"/>
      <feOffset dy="2"/>
      <feGaussianBlur stdDeviation="2"/>
      <feComposite in2="hardAlpha" k2="-1" k3="1" operator="arithmetic"/>
      <feColorMatrix values="0 0 0 0 1 0 0 0 0 1 0 0 0 0 1 0 0 0 0.47 0"/>
      <feBlend in2="shape" result="effect3_innerShadow_19003_33806"/>
    </filter>
  </defs>
</svg>
